# xmcd
#
# Track frame offsets:
#	150
#	16010
#	30402
#	54431
#	68807
#	82776
#	101080
#	114270
#	132273
#	146992
#	164097
#	179386
#	194064
#	208790
#	222765
#	235818
#	250177
#	266890
#	281057
#	295820
#
# Disc length: 4183 seconds
#
# Revision: 0
# Processed by: cddbd v1.5.2PL0 Copyright (c) Steve Scherf et al.
# Submitted via: EasyCDDAExtractor 16.0.9.1
#
DISCID=2e105514
DTITLE=Hott Country Volume 238 CAN
DYEAR=2015
DGENRE=country
TTITLE0=Carrie Underwood - Heartbeat
TTITLE1=Luke Bryan ft. Karen Fairchild - Home Alone Tonight
TTITLE2=Eric Church - Mr. Misunderstood
TTITLE3=Florida Georgia Line - Confession
TTITLE4=Wes Mack - I Lost Count
TTITLE5=Chris Stapleton - Nobody To Blame
TTITLE6=Dean Brody - Love Would Be Enough
TTITLE7=Frankie Ballard - It All Started With A Beer
TTITLE8=River Town Saints - A Little Bit Goes A Long Way
TTITLE9=Johnny Reid - Honey Honey
TTITLE10=The Road Hammers ft. Tim Hicks - One Horse Town
TTITLE11=Chad Brownlee - Hearts On Fire
TTITLE12=Jessica Mitchell - Grown Up Things
TTITLE13=Jojo Mason - Good Kinda Love
TTITLE14=Alee - Say Hello To Goodbye
TTITLE15=Chris Lane - Fix
TTITLE16=Tristan Horncastle - Drinkin' Girl
TTITLE17=Mickey Guyton - Do You Want To Build A Snowman?
TTITLE18=Bucko and Toad - Frozen In Your Eyes
TTITLE19=Jann Arden - Happy X-Mas (War Is Over)
EXTD=
EXTT0=
EXTT1=
EXTT2=
EXTT3=
EXTT4=
EXTT5=
EXTT6=
EXTT7=
EXTT8=
EXTT9=
EXTT10=
EXTT11=
EXTT12=
EXTT13=
EXTT14=
EXTT15=
EXTT16=
EXTT17=
EXTT18=
EXTT19=
PLAYORDER=
